<svg width="449" height="158" viewBox="0 0 449 158" fill="none" xmlns="http://www.w3.org/2000/svg">
<path d="M88.1242 26.0442C89.3961 23.8191 92.6042 23.8191 93.8761 26.0442L117.497 67.3816L158.382 49.86C160.771 48.8359 163.355 50.8383 162.96 53.408L152.347 122.39C151.353 128.854 145.791 133.625 139.253 133.625H42.7476C36.2085 133.625 30.6474 128.854 29.6531 122.39L19.0403 53.408C18.645 50.8383 21.229 48.8359 23.6186 49.86L64.5029 67.3816L88.1242 26.0442Z" fill="#FF5252"/>
<path d="M185.95 50.295H181.945V57H173.845V30H185.635C193.33 30 196.93 33.555 196.93 40.215C196.93 45.66 192.97 50.295 185.95 50.295ZM184.96 36.795H181.945V43.725H185.05C187.885 43.725 188.92 42.6 188.92 40.26C188.92 37.965 187.84 36.795 184.96 36.795ZM210.315 48.675H207.345V57H199.245V30H211.665C218.73 30 222.735 33.015 222.735 39.495C222.735 43.455 221.025 46.065 218.1 47.46L224.31 56.505V57H214.905L210.315 48.675ZM211.08 36.75H207.345V42.78H211.215C213.87 42.78 214.725 41.88 214.725 39.765C214.725 37.605 213.6 36.75 211.08 36.75ZM234.152 30V57H226.052V30H234.152ZM263.749 57H253.084L249.214 48.225C248.179 45.885 246.469 40.935 245.209 37.29L244.669 37.335C245.029 41.43 245.254 47.325 245.254 50.16V57H237.829V30H249.169L252.409 37.2C253.759 40.215 255.379 45.075 256.324 48.405L256.864 48.315C256.549 44.4 256.324 39.945 256.324 37.11V30H263.749V57ZM280.004 57.675C271.544 57.675 266.549 52.455 266.549 43.41C266.549 34.365 271.949 29.325 280.229 29.325C287.474 29.325 291.839 33.015 292.559 40.035L284.819 41.475C284.279 38.055 283.019 36.345 279.959 36.345C275.999 36.345 274.604 39.63 274.604 43.41C274.604 48.045 276.089 50.79 279.914 50.79C283.154 50.79 284.234 49.035 284.954 45.57L292.604 46.83C291.839 53.85 287.249 57.675 280.004 57.675ZM316.996 57H295.486V30H316.996V36.975H303.586V40.575H316.096V46.29H303.586V50.025H316.996V57ZM195.355 93H173.845V66H195.355V72.975H181.945V76.575H194.455V82.29H181.945V86.025H195.355V93ZM210.777 93H198.762V66H211.002C220.722 66 224.772 70.68 224.772 79.095C224.772 87.645 219.597 93 210.777 93ZM206.862 72.615V86.385H210.192C214.872 86.385 216.717 84.27 216.717 79.095C216.717 74.1 214.872 72.615 210.012 72.615H206.862ZM239.528 86.52C242.948 86.52 243.893 84.765 243.893 81.705V66H251.993V82.38C251.993 89.58 247.583 93.63 239.528 93.63C231.428 93.63 227.063 89.58 227.063 82.38V66H235.163V81.705C235.163 84.765 236.108 86.52 239.528 86.52ZM268.182 93.675C259.722 93.675 254.727 88.455 254.727 79.41C254.727 70.365 260.127 65.325 268.407 65.325C275.652 65.325 280.017 69.015 280.737 76.035L272.997 77.475C272.457 74.055 271.197 72.345 268.137 72.345C264.177 72.345 262.782 75.63 262.782 79.41C262.782 84.045 264.267 86.79 268.092 86.79C271.332 86.79 272.412 85.035 273.132 81.57L280.782 82.83C280.017 89.85 275.427 93.675 268.182 93.675ZM298.547 88.095H289.502L288.152 93H279.827L288.557 66H299.807L308.537 93H299.852L298.547 88.095ZM294.542 72.93H293.597C293.102 74.955 292.607 76.935 292.067 78.96L291.122 82.29H296.972L296.072 78.96C295.532 76.935 295.037 74.955 294.542 72.93ZM312.409 73.425H305.299V66H327.619V73.425H320.509V93H312.409V73.425ZM338.083 66V93H329.983V66H338.083ZM354.675 93.675C345.855 93.675 340.86 88.275 340.86 79.41C340.86 70.5 346.305 65.325 354.675 65.325C363.225 65.325 368.49 70.5 368.49 79.41C368.49 88.275 363.495 93.675 354.675 93.675ZM354.63 86.79C358.905 86.79 360.435 84.09 360.435 79.365C360.435 75.045 358.86 72.345 354.675 72.345C350.49 72.345 348.915 75.09 348.915 79.365C348.915 84.045 350.49 86.79 354.63 86.79ZM397.211 93H386.546L382.676 84.225C381.641 81.885 379.931 76.935 378.671 73.29L378.131 73.335C378.491 77.43 378.716 83.325 378.716 86.16V93H371.291V66H382.631L385.871 73.2C387.221 76.215 388.841 81.075 389.786 84.405L390.326 84.315C390.011 80.4 389.786 75.945 389.786 73.11V66H397.211V93ZM417.155 88.095H408.11L406.76 93H398.435L407.165 66H418.415L427.145 93H418.46L417.155 88.095ZM413.15 72.93H412.205C411.71 74.955 411.215 76.935 410.675 78.96L409.73 82.29H415.58L414.68 78.96C414.14 76.935 413.645 74.955 413.15 72.93ZM428.376 66H436.476V85.8H447.366V93H428.376V66ZM185.32 129.675C176.005 129.675 173.35 125.625 172.855 121.35L180.55 119.685C181.135 122.34 183.205 123.285 185.68 123.285C187.84 123.285 189.055 122.79 189.055 121.575C189.055 120.18 188.11 119.46 183.25 118.65C175.69 117.57 173.44 114.51 173.44 109.785C173.44 104.385 177.175 101.325 185.095 101.325C192.835 101.325 195.985 104.655 196.615 109.155L188.56 110.685C188.065 108.57 187.21 107.49 184.645 107.49C182.53 107.49 181.45 108.12 181.45 109.38C181.45 110.46 181.765 111.315 186.76 112.125C195.535 113.655 197.2 117.03 197.2 121.08C197.2 126.525 193.6 129.675 185.32 129.675ZM212.589 122.52C216.009 122.52 216.954 120.765 216.954 117.705V102H225.054V118.38C225.054 125.58 220.644 129.63 212.589 129.63C204.489 129.63 200.124 125.58 200.124 118.38V102H208.224V117.705C208.224 120.765 209.169 122.52 212.589 122.52ZM240.794 122.295H236.789V129H228.689V102H240.479C248.174 102 251.774 105.555 251.774 112.215C251.774 117.66 247.814 122.295 240.794 122.295ZM239.804 108.795H236.789V115.725H239.894C242.729 115.725 243.764 114.6 243.764 112.26C243.764 109.965 242.684 108.795 239.804 108.795ZM266.194 122.295H262.189V129H254.089V102H265.879C273.574 102 277.174 105.555 277.174 112.215C277.174 117.66 273.214 122.295 266.194 122.295ZM265.204 108.795H262.189V115.725H265.294C268.129 115.725 269.164 114.6 269.164 112.26C269.164 109.965 268.084 108.795 265.204 108.795ZM279.49 102H287.59V121.8H298.48V129H279.49V102ZM311.741 120.765V129H303.641V120.765L294.236 102.495V102H303.236L307.331 113.88H308.096L312.416 102H321.146V102.495L311.741 120.765Z" fill="#20232C"/>
</svg>
